<svg width="444" height="180" viewBox="0 0 444 180" fill="none" xmlns="http://www.w3.org/2000/svg">
<path d="M0 60C0 26.8629 26.8629 0 60 0H138V60H0Z" fill="#A9DDB1"/>
<path d="M0 60H69V120H0V60Z" fill="#94CC9D"/>
<path d="M0 120H138V180H60C26.8629 180 0 153.137 0 120Z" fill="#80BE8A"/>
<path d="M153 60C153 26.8629 179.863 0 213 0H231C264.137 0 291 26.8629 291 60H153Z" fill="#A9DDB1"/>
<path d="M153 60H291V120H153V60Z" fill="#94CC9D"/>
<path d="M153 120H291C291 153.137 264.137 180 231 180H213C179.863 180 153 153.137 153 120Z" fill="#80BE8A"/>
<path d="M306 60C306 26.8629 332.863 0 366 0H444V60H306Z" fill="#A9DDB1"/>
<path d="M306 60H375V120H306V60Z" fill="#94CC9D"/>
<path d="M306 120H444V180H366C332.863 180 306 153.137 306 120Z" fill="#80BE8A"/>
</svg>
