<svg width="444" height="180" viewBox="0 0 444 180" fill="none" xmlns="http://www.w3.org/2000/svg">
<path d="M34 60C34 26.8629 60.8629 0 94 0H103V60H34Z" fill="#BDA9DD"/>
<path d="M34 60H103V120H34V60Z" fill="#817ABC"/>
<path d="M34 120H103V180H34V120Z" fill="#6A63A0"/>
<path d="M153 60C153 26.8629 179.863 0 213 0H231C264.137 0 291 26.8629 291 60H153Z" fill="#BDA9DD"/>
<path d="M153 60H291V120H153V60Z" fill="#817ABC"/>
<path d="M153 120H291C291 153.137 264.137 180 231 180H213C179.863 180 153 153.137 153 120Z" fill="#6A63A0"/>
<path d="M341 60C341 26.8629 367.863 0 401 0H410V60H341Z" fill="#BDA9DD"/>
<path d="M341 60H410V120H341V60Z" fill="#817ABC"/>
<path d="M341 120H410V180H341V120Z" fill="#6A63A0"/>
</svg>
