<svg width="109" height="109" viewBox="0 0 109 109" fill="none" xmlns="http://www.w3.org/2000/svg">
<g clip-path="url(#clip0_59015_6788)">
<path d="M72.3357 0H81.3662V9.0305H72.3357V0Z" fill="#FFDA58"/>
<path d="M63.3049 9.03076H72.3354V18.0613H63.3049V9.03076Z" fill="#FFDA58"/>
<path d="M63.3049 54.1729H72.3354V63.2034H63.3049V54.1729Z" fill="#FFDA58"/>
<path d="M63.3049 63.2036H72.3354V72.2341H63.3049V63.2036Z" fill="#FFDA58"/>
<path d="M63.3049 72.2236H72.3354V81.2541H63.3049V72.2236Z" fill="#FFDA58"/>
<path d="M36.2234 63.2036H45.2539V72.2341H36.2234V63.2036Z" fill="#FFDA58"/>
<path d="M36.2234 72.2236H45.2539V81.2541H36.2234V72.2236Z" fill="#FFDA58"/>
<path d="M72.3357 27.0908H81.3662V36.1213H72.3357V27.0908Z" fill="#FFDA58"/>
<path d="M72.3357 36.1118H81.3662V45.1423H72.3357V36.1118Z" fill="#FFDA58"/>
<path d="M81.3557 9.03076H90.3862V18.0613H81.3557V9.03076Z" fill="#FFDA58"/>
<path d="M81.3557 54.1729H90.3862V63.2034H81.3557V54.1729Z" fill="#FFDA58"/>
<path d="M81.3557 63.2036H90.3862V72.2341H81.3557V63.2036Z" fill="#FFDA58"/>
<path d="M81.3557 72.2236H90.3862V81.2541H81.3557V72.2236Z" fill="#FFDA58"/>
<path d="M72.3357 63.2036H81.3662V72.2341H72.3357V63.2036Z" fill="#E27535"/>
<path d="M72.3357 72.2236H81.3662V81.2541H72.3357V72.2236Z" fill="#E27535"/>
<path d="M63.3049 81.2544H72.3354V90.2849H63.3049V81.2544Z" fill="#E27535"/>
<path d="M45.2444 81.2544H54.2749V90.2849H45.2444V81.2544Z" fill="#E27535"/>
<path d="M54.2742 81.2544H63.3047V90.2849H54.2742V81.2544Z" fill="#E27535"/>
<path d="M36.2234 81.2544H45.2539V90.2849H36.2234V81.2544Z" fill="#E27535"/>
<path d="M27.1931 81.2544H36.2236V90.2849H27.1931V81.2544Z" fill="#E27535"/>
<path d="M90.386 63.2036H99.4165V72.2341H90.386V63.2036Z" fill="#FAA31F"/>
<path d="M90.386 72.2236H99.4165V81.2541H90.386V72.2236Z" fill="#FAA31F"/>
<path d="M90.386 81.2544H99.4165V90.2849H90.386V81.2544Z" fill="#FAA31F"/>
<path d="M81.3557 81.2544H90.3862V90.2849H81.3557V81.2544Z" fill="#FAA31F"/>
<path d="M81.3557 90.2847H90.3862V99.3152H81.3557V90.2847Z" fill="#FAA31F"/>
<path d="M63.3049 90.2847H72.3354V99.3152H63.3049V90.2847Z" fill="#FAA31F"/>
<path d="M45.2444 90.2847H54.2749V99.3152H45.2444V90.2847Z" fill="#FAA31F"/>
<path d="M27.1931 90.2847H36.2236V99.3152H27.1931V90.2847Z" fill="#FAA31F"/>
<path d="M90.386 90.2847H99.4165V99.3152H90.386V90.2847Z" fill="#EB7924"/>
<path d="M81.3557 99.3154H90.3862V108.346H81.3557V99.3154Z" fill="#EB7924"/>
<path d="M63.3049 99.3154H72.3354V108.346H63.3049V99.3154Z" fill="#EB7924"/>
<path d="M72.3357 99.3154H81.3662V108.346H72.3357V99.3154Z" fill="#EB7924"/>
<path d="M54.2742 99.3154H63.3047V108.346H54.2742V99.3154Z" fill="#EB7924"/>
<path d="M45.2444 99.3154H54.2749V108.346H45.2444V99.3154Z" fill="#EB7924"/>
<path d="M27.1931 99.3154H36.2236V108.346H27.1931V99.3154Z" fill="#EB7924"/>
<path d="M36.2234 99.3154H45.2539V108.346H36.2234V99.3154Z" fill="#EB7924"/>
<path d="M18.1624 99.3154H27.1929V108.346H18.1624V99.3154Z" fill="#EB7924"/>
<path d="M9.13209 90.2847H18.1626V99.3152H9.13209V90.2847Z" fill="#EB7924"/>
<path d="M72.3357 90.2847H81.3662V99.3152H72.3357V90.2847Z" fill="#FAA31F"/>
<path d="M54.2742 90.2847H63.3047V99.3152H54.2742V90.2847Z" fill="#FAA31F"/>
<path d="M72.3357 81.2544H81.3662V90.2849H72.3357V81.2544Z" fill="#FAA31F"/>
<path d="M36.2234 90.2847H45.2539V99.3152H36.2234V90.2847Z" fill="#FAA31F"/>
<path d="M18.1624 90.2847H27.1929V99.3152H18.1624V90.2847Z" fill="#FAA31F"/>
<path d="M81.3557 27.0908H90.3862V36.1213H81.3557V27.0908Z" fill="#FFDA58"/>
<path d="M81.3557 36.1118H90.3862V45.1423H81.3557V36.1118Z" fill="#FFDA58"/>
<path d="M90.386 27.0908H99.4165V36.1213H90.386V27.0908Z" fill="#CE5D4E"/>
<path d="M99.4168 27.0908H108.447V36.1213H99.4168V27.0908Z" fill="#F58577"/>
<path d="M81.3557 18.0615H90.3862V27.092H81.3557V18.0615Z" fill="#FFDA58"/>
<path d="M72.3357 18.0615H81.3662V27.092H72.3357V18.0615Z" fill="#2A304D"/>
<path d="M63.3049 0H72.3354V9.0305H63.3049V0Z" fill="#FFDA58"/>
<path d="M72.3357 9.03076H81.3662V18.0613H72.3357V9.03076Z" fill="#FFDA58"/>
<path d="M72.3357 54.1729H81.3662V63.2034H72.3357V54.1729Z" fill="#FFDA58"/>
<path d="M63.3049 27.0908H72.3354V36.1213H63.3049V27.0908Z" fill="#FFDA58"/>
<path d="M63.3049 36.1118H72.3354V45.1423H63.3049V36.1118Z" fill="#FFDA58"/>
<path d="M63.3049 18.0615H72.3354V27.092H63.3049V18.0615Z" fill="#FFDA58"/>
<path d="M54.2742 0H63.3047V9.0305H54.2742V0Z" fill="#FFDA58"/>
<path d="M54.2742 9.03076H63.3047V18.0613H54.2742V9.03076Z" fill="#FFDA58"/>
<path d="M54.2742 63.2036H63.3047V72.2341H54.2742V63.2036Z" fill="#FFDA58"/>
<path d="M54.2742 72.2236H63.3047V81.2541H54.2742V72.2236Z" fill="#FFDA58"/>
<path d="M54.2742 54.1729H63.3047V63.2034H54.2742V54.1729Z" fill="#FFDA58"/>
<path d="M45.2444 63.2036H54.2749V72.2341H45.2444V63.2036Z" fill="#FFDA58"/>
<path d="M45.2444 72.2236H54.2749V81.2541H45.2444V72.2236Z" fill="#FFDA58"/>
<path d="M27.1931 63.2036H36.2236V72.2341H27.1931V63.2036Z" fill="#FFDA58"/>
<path d="M27.1931 72.2236H36.2236V81.2541H27.1931V72.2236Z" fill="#FFDA58"/>
<path d="M45.2444 54.1729H54.2749V63.2034H45.2444V54.1729Z" fill="#FFDA58"/>
<path d="M18.1624 63.2036H27.1929V72.2341H18.1624V63.2036Z" fill="#FFDA58"/>
<path d="M18.1624 72.2236H27.1929V81.2541H18.1624V72.2236Z" fill="#FFDA58"/>
<path d="M18.1624 81.2544H27.1929V90.2849H18.1624V81.2544Z" fill="#FFDA58"/>
<path d="M0.111582 63.2036H9.14209V72.2341H0.111582V63.2036Z" fill="#FFDA58"/>
<path d="M0.111582 72.2236H9.14209V81.2541H0.111582V72.2236Z" fill="#FFDA58"/>
<path d="M9.13209 63.2036H18.1626V72.2341H9.13209V63.2036Z" fill="#FAA420"/>
<path d="M0.111582 81.2544H9.14209V90.2849H0.111582V81.2544Z" fill="#FAA420"/>
<path d="M9.13209 72.2236H18.1626V81.2541H9.13209V72.2236Z" fill="#FFDA58"/>
<path d="M9.13209 81.2544H18.1626V90.2849H9.13209V81.2544Z" fill="#FFDA58"/>
<path d="M0.111582 54.1729H9.14209V63.2034H0.111582V54.1729Z" fill="#FFDA58"/>
<path d="M54.2742 27.0908H63.3047V36.1213H54.2742V27.0908Z" fill="#FFDA58"/>
<path d="M54.2742 36.1118H63.3047V45.1423H54.2742V36.1118Z" fill="#FAA31F"/>
<path d="M72.3357 45.1426H81.3662V54.1731H72.3357V45.1426Z" fill="#FAA31F"/>
<path d="M63.3049 45.1426H72.3354V54.1731H63.3049V45.1426Z" fill="#FAA31F"/>
<path d="M45.2444 36.1118H54.2749V45.1423H45.2444V36.1118Z" fill="#EB7924"/>
<path d="M54.2742 45.1426H63.3047V54.1731H54.2742V45.1426Z" fill="#EB7924"/>
<path d="M54.2742 18.0615H63.3047V27.092H54.2742V18.0615Z" fill="#FFDA58"/>
<path d="M45.2444 9.03076H54.2749V18.0613H45.2444V9.03076Z" fill="#FAA31F"/>
<path d="M45.2444 27.0908H54.2749V36.1213H45.2444V27.0908Z" fill="#FAA31F"/>
<path d="M45.2444 18.0615H54.2749V27.092H45.2444V18.0615Z" fill="#FAA31F"/>
</g>
<defs>
<clipPath id="clip0_59015_6788">
<rect width="108.447" height="108.447" fill="white" transform="matrix(-1 0 0 1 108.447 0)"/>
</clipPath>
</defs>
</svg>
