<svg width="444" height="180" viewBox="0 0 444 180" fill="none" xmlns="http://www.w3.org/2000/svg">
<path d="M0 0H78C111.137 0 138 26.8629 138 60H0V0Z" fill="#FF8675"/>
<path d="M0 60H78C111.137 60 138 86.8629 138 120H0V60Z" fill="#EA7564"/>
<path d="M0 120H138C138 153.137 111.137 180 78 180H0V120Z" fill="#CE5D4D"/>
<path d="M153 0H291V60H153V0Z" fill="#FF8675"/>
<path d="M153 60H291V120H153V60Z" fill="#EA7564"/>
<path d="M153 120H291C291 153.137 264.137 180 231 180H213C179.863 180 153 153.137 153 120Z" fill="#CE5D4D"/>
<path d="M306 0H444V60H306V0Z" fill="#FF8675"/>
<path d="M306 60H444V120H366C332.863 120 306 93.1371 306 60Z" fill="#EA7564"/>
<path d="M375 120H444V180H375V120Z" fill="#CE5D4D"/>
</svg>
