<?xml version="1.0" encoding="utf-8"?>
<!-- Generator: Adobe Illustrator 26.2.1, SVG Export Plug-In . SVG Version: 6.00 Build 0)  -->
<svg version="1.1" id="Layer_1" xmlns="http://www.w3.org/2000/svg" xmlns:xlink="http://www.w3.org/1999/xlink" x="0px" y="0px"
	 viewBox="0 0 252.8 43.4" style="enable-background:new 0 0 252.8 43.4;" xml:space="preserve">
<style type="text/css">
	.st0{fill:#FFFFFF;}
</style>
<g id="AG_logo_black" transform="translate(-306.6 -271.4)">
	<g id="Group_1">
		<path id="Path_1" class="st0" d="M458.5,287.7c-6.3,0-8.5,5.4-8.5,12.3s2.3,12.3,8.5,12.3c2.2,0,4.9-0.2,6.2-0.8v-9.8h-6v-2.4h8.6
			v13.9c-2.8,1.2-5.8,1.7-8.8,1.6c-8.6,0-11.3-6.6-11.3-14.7s2.7-14.7,11.3-14.7L458.5,287.7L458.5,287.7z"/>
		<path id="Path_2" class="st0" d="M473.7,314.4h-2.6v-28.7h9c7.1,0,9.4,3.1,9.4,8.1c0,3.8-1.3,6.6-5.3,7.6l6.8,13h-3l-6.4-12.6
			h-7.9V314.4z M473.7,299.4h7.1c5.1,0,5.8-2.6,5.8-5.7s-0.8-5.7-5.8-5.7h-7.1V299.4z"/>
		<path id="Path_3" class="st0" d="M492.2,300.1c0-7.5,1.3-14.7,10.7-14.7s10.7,7.2,10.7,14.7s-1.3,14.7-10.7,14.7
			S492.2,307.5,492.2,300.1z M510.8,300.1c0-6.9-1-12.3-8-12.3c-6.9,0-8,5.4-8,12.3s1,12.3,8,12.3S510.8,306.9,510.8,300.1
			L510.8,300.1z"/>
		<path id="Path_4" class="st0" d="M534.5,305v-19.3h2.6v19.7c0,8.1-6.7,9.4-10.1,9.4s-10.1-1.2-10.1-9.4v-19.7h2.6V305
			c0,6.9,5,7.4,7.5,7.4S534.5,311.9,534.5,305z"/>
		<path id="Path_5" class="st0" d="M549.8,300.5h0.3c5.4,0,6.4-3.4,6.4-6.2s-1-6.2-6.4-6.2h-6.5v26.3H541v-28.7h8.8
			c7.1,0,9.6,4.1,9.6,8.6s-2.4,8.6-9.6,8.6V300.5z"/>
		<path id="Path_6" class="st0" d="M551.8,310.1v4.3h-0.7v-4.3h-1.3v-0.7h3.3v0.7H551.8z"/>
		<path id="Path_7" class="st0" d="M556.8,313.7h-0.7l-1.2-3.1v3.7h-0.7v-5h1l1.3,3.4l1.3-3.4h1v5H558v-3.7L556.8,313.7z"/>
	</g>
	<path id="Path_8" class="st0" d="M418.1,271.4l-10.5,43h11.8l1.6-7.8h9.1l1.6,7.8h11.8l-10.5-43H418.1z M422.8,298l2.8-16.4
		l2.8,16.4H422.8z"/>
	<path id="Path_9" class="st0" d="M317.1,271.4l-10.5,43h11.8l1.6-7.8h9.1l1.6,7.8h11.8l-10.5-43H317.1z M321.7,298l2.8-16.4
		l2.8,16.4H321.7z M401.1,271.4l-6,29.6l-6-29.6h-24.8l-10.6,17.3v-17.3h-11.2v43h11.2V302l2.3-3.4l8.7,15.8h14l-14.9-24.1
		l13.4-18.2l11.3,42.3h13.2l11.5-43L401.1,271.4L401.1,271.4z"/>
</g>
</svg>
