<svg version="1.1" id="Iver" xmlns="http://www.w3.org/2000/svg" x="0px" y="0px" viewBox="0 0 346.5 177.2" xml:space="preserve">
  <g fill="white">
    <rect x="0" y="54.4" width="21.1" height="119.8"/>
    <polygon points="96.1,154.8 95.1,154.8 68.8,54.4 46.7,54.4 80.4,174.2 111.3,174.2 144.9,54.4 122.8,54.4"/>
    <polygon points="0,27 21.1,37.4 21.1,10.4 0,0"/>
    <path d="M211.3,51.6c-29.4,0-51.9,19.3-51.9,56.7V121c0,35.6,23.2,56.2,53.4,56.2c25.8,0,47.4-14.3,47.4-41.1h-20.8
      c-0.8,17.1-13.6,21.5-26.6,21.5c-14.2,0-32.5-8.9-32.5-33.6V121h80.8v-17.2C261.1,72.8,242.7,51.6,211.3,51.6z M180.5,101.1
      c0.8-8.9,3.3-15.1,6.9-19.9c6.1-8.2,16.7-10.5,24.1-10.5c13.8,0,28.2,7.4,28.4,30.4H180.5z"/>
    <polygon points="288.9,54.4 288.9,174.2 310.1,174.2 310.1,74.3 346.5,74.3 346.5,54.4"/>
  </g>
</svg>
