<svg id="Layer_1" data-name="Layer 1" xmlns="http://www.w3.org/2000/svg" viewBox="0 0 261.79 139.26"><defs><style>.cls-1{fill:#fff;}</style></defs><path class="cls-1" d="M0,34.07V.67H6.11L16.56,23a39.82,39.82,0,0,1,2.62,7.82h.29a47.6,47.6,0,0,1-.62-7.58V.67h3.81v33.4h-6.1L6.11,11.79A38.92,38.92,0,0,1,3.48,4H3.2a48.92,48.92,0,0,1,.62,7.59V34.07Z"/><path class="cls-1" d="M33.57,30.3Q30.2,25.86,30.2,17.37T33.57,4.44Q36.93,0,43.18,0t9.66,4.41c2.24,3,3.37,7.26,3.37,13s-1.13,10-3.37,13-5.46,4.41-9.66,4.41S35.81,33.25,33.57,30.3ZM37.14,7.06q-1.92,3.3-1.93,10.31t1.93,10.3a6.5,6.5,0,0,0,6,3.29,6.53,6.53,0,0,0,6.08-3.29q1.93-3.29,1.94-10.3T49.26,7.06a6.55,6.55,0,0,0-6.08-3.29A6.51,6.51,0,0,0,37.14,7.06Z"/><path class="cls-1" d="M84.59,27.15a46.2,46.2,0,0,0,1.67,6.92H81a13.07,13.07,0,0,1-.43-1.65c-.13-.62-.28-1.46-.43-2.53s-.27-1.82-.34-2.27q-.76-4.9-2.14-6.63t-4.54-1.71h-5V34.07H63.46V.67h11.4c3.12,0,5.53.75,7.25,2.26a7.94,7.94,0,0,1,2.58,6.28,7.73,7.73,0,0,1-2.39,6.06,9.48,9.48,0,0,1-6.58,2.15H74.38v.28l1.39.05c1,.06,1.67.12,2.14.17a9,9,0,0,1,1.77.38,3.6,3.6,0,0,1,1.62.9,11.5,11.5,0,0,1,1.24,1.6,9.72,9.72,0,0,1,1.15,2.58C84,24.43,84.31,25.69,84.59,27.15ZM68.18,15.84h5.68a5.8,5.8,0,0,0,4.36-1.55,6,6,0,0,0,1.51-4.41q0-5.73-5.87-5.73H68.18Z"/><path class="cls-1" d="M111.17,10.93a8.87,8.87,0,0,0-1.93-5.32,5.63,5.63,0,0,0-4.42-1.84,6.39,6.39,0,0,0-6,3.34Q96.9,10.46,96.9,17.37t1.91,10.28A6.31,6.31,0,0,0,104.68,31q7.11,0,7.11-9.58V20.23H104.3V16.79h11.88V34.07h-3.77V30.68a63.82,63.82,0,0,1,.38-6.63h-.29q-.52,5.53-2.69,8.11c-1.45,1.72-3.59,2.57-6.42,2.57a9.67,9.67,0,0,1-8.49-4.41q-3-4.41-3-12.81,0-8.58,3.32-13T104.77,0a11.64,11.64,0,0,1,7.64,2.43,10.26,10.26,0,0,1,3.43,7.26Z"/><path class="cls-1" d="M130.25,30.58h13.89v3.49H125.53V.67h18.32V4.15h-13.6V15.08h12.5v3.48h-12.5Z"/><path class="cls-1" d="M162,34.73c-3.6,0-6.43-.9-8.5-2.72a9.83,9.83,0,0,1-3.19-7.58L155,23.09q.38,8,7.11,8a6.88,6.88,0,0,0,4.5-1.34,4.79,4.79,0,0,0,1.65-4q0-3.81-4.29-5.48l-5.44-2.2q-6.93-2.76-6.92-9.25a7.89,7.89,0,0,1,2.86-6.54,14,14,0,0,1,15.36,0A8.45,8.45,0,0,1,173,9l-4.53,1.29q-.43-6.65-6.34-6.64a6.34,6.34,0,0,0-4.18,1.15,4.23,4.23,0,0,0-1.5,3.53,4.93,4.93,0,0,0,1.07,3.36,9,9,0,0,0,3.41,2.17L166,15.94q7,2.8,7,9.25a8.71,8.71,0,0,1-2.94,7.06C168.16,33.91,165.46,34.73,162,34.73Z"/><path class="cls-1" d="M9.07,61.73q7.16,0,10.59,4.42t3.43,12.28q0,7.92-3.43,12.31T9.07,95.13H0V61.73ZM8.64,91.65c3.5,0,5.94-1.12,7.34-3.36s2.1-5.53,2.1-9.86-.7-7.61-2.1-9.85-3.84-3.36-7.34-3.36H4.72V91.65Z"/><path class="cls-1" d="M32.37,91.36Q29,86.94,29,78.43T32.37,65.5q3.38-4.43,9.62-4.43t9.66,4.41Q55,69.89,55,78.43t-3.36,13Q48.29,95.8,42,95.8T32.37,91.36ZM36,68.13Q34,71.41,34,78.43T36,88.74A6.51,6.51,0,0,0,42,92a6.56,6.56,0,0,0,6.08-3.29Q50,85.44,50,78.43t-1.93-10.3A6.54,6.54,0,0,0,42,64.84,6.5,6.5,0,0,0,36,68.13Z"/><path class="cls-1" d="M62.26,95.13V61.73h6.92l5.35,18.56a46.17,46.17,0,0,1,2.1,11.65H77a42,42,0,0,1,2-11.65l5.59-18.56H91v33.4H86.5V76.19c0-3.91.15-7.58.43-11H86.6a79,79,0,0,1-2.1,9.35l-6,20.61h-4.2l-6.2-21a72.38,72.38,0,0,1-2-8.92h-.34c.26,3.08.39,6.6.39,10.54V95.13Z"/><path class="cls-1" d="M110.07,95.8q-5.38,0-8.49-2.72a9.8,9.8,0,0,1-3.2-7.58L103,84.16q.38,8,7.11,8a7,7,0,0,0,4.51-1.34,4.82,4.82,0,0,0,1.64-4q0-3.81-4.29-5.49l-5.44-2.19q-6.92-2.78-6.92-9.26a7.89,7.89,0,0,1,2.86-6.53,12,12,0,0,1,7.73-2.29,12.1,12.1,0,0,1,7.64,2.29A8.48,8.48,0,0,1,121,70.08l-4.54,1.29q-.42-6.63-6.34-6.63a6.38,6.38,0,0,0-4.18,1.15,4.23,4.23,0,0,0-1.5,3.53,4.93,4.93,0,0,0,1.07,3.36A9.21,9.21,0,0,0,108.93,75l5.15,2q7,2.82,7,9.26a8.75,8.75,0,0,1-2.93,7.06C116.2,95,113.51,95.8,110.07,95.8Z"/><path class="cls-1" d="M149.53,61.73V65.5h-9.16V95.13h-4.68V65.5h-9.16V61.73Z"/><path class="cls-1" d="M157.38,91.36Q154,86.94,154,78.43t3.37-12.93q3.36-4.43,9.61-4.43t9.66,4.41q3.36,4.41,3.36,13t-3.36,13Q173.29,95.8,167,95.8T157.38,91.36ZM161,68.13Q159,71.41,159,78.43T161,88.74a7.23,7.23,0,0,0,12.12,0Q175,85.44,175,78.43t-1.93-10.3a7.23,7.23,0,0,0-12.12,0Z"/><path class="cls-1" d="M187.27,61.73H192V91.36h13.26v3.77h-18Z"/><path class="cls-1" d="M216.8,91.65h13.88v3.48h-18.6V61.73H230.4v3.49H216.8V76.14h12.5v3.49H216.8Z"/><path class="cls-1" d="M259.93,88.21a44.67,44.67,0,0,0,1.67,6.92h-5.25a14.25,14.25,0,0,1-.43-1.64c-.13-.62-.27-1.47-.43-2.53s-.27-1.82-.33-2.27q-.76-4.91-2.15-6.63c-.92-1.14-2.43-1.72-4.53-1.72h-5V95.13h-4.73V61.73H250.2q4.67,0,7.25,2.27A7.91,7.91,0,0,1,260,70.28a7.73,7.73,0,0,1-2.39,6,9.45,9.45,0,0,1-6.58,2.15h-1.34v.29l1.38,0c1,.06,1.67.11,2.15.16a10.78,10.78,0,0,1,1.77.38,3.67,3.67,0,0,1,1.62.91,12.32,12.32,0,0,1,1.24,1.6A9.72,9.72,0,0,1,259,84.45C259.34,85.5,259.64,86.75,259.93,88.21Zm-16.41-11.3h5.67a5.82,5.82,0,0,0,4.37-1.55,6.12,6.12,0,0,0,1.5-4.42c0-3.81-1.95-5.72-5.87-5.72h-5.67Z"/><rect class="cls-1" y="130.58" width="261.79" height="8.68"/></svg>