<svg xmlns="http://www.w3.org/2000/svg" viewBox="0 0 252 76.64"><defs><style>.cls-1{fill:#fff;}.cls-2{fill:#e52b1d;}</style></defs><g id="Layer_2" data-name="Layer 2"><g id="Layer_1-2" data-name="Layer 1"><g id="Group_1" data-name="Group 1"><g id="Group_8" data-name="Group 8"><g id="Group_6" data-name="Group 6"><path id="Path_18" data-name="Path 18" class="cls-1" d="M98.12,7.31h21.17a.44.44,0,0,1,.44.44v4.1a.44.44,0,0,1-.44.43H103.81a.44.44,0,0,0-.44.44v6.9a.44.44,0,0,0,.44.44h13.48a.44.44,0,0,1,.44.44v4.23a.44.44,0,0,1-.44.44H103.81a.44.44,0,0,0-.44.44v7.14a.44.44,0,0,0,.44.43h15.44a.44.44,0,0,1,.44.44V38a.44.44,0,0,1-.44.44H98.12a.44.44,0,0,1-.44-.44V7.75a.44.44,0,0,1,.44-.44Z"></path><path id="Path_19" data-name="Path 19" class="cls-1" d="M125.55,7.31h4.81a.44.44,0,0,1,.44.44h0V32.88a.44.44,0,0,0,.44.43h14.95a.44.44,0,0,1,.44.44V38a.44.44,0,0,1-.44.43H125.55a.44.44,0,0,1-.44-.43V7.75a.44.44,0,0,1,.44-.44Z"></path><path id="Path_20" data-name="Path 20" class="cls-1" d="M176.24,21.27v8.89c0,6.13-2.8,8.49-8.4,8.49h-6.05c-5.56,0-8.36-2.36-8.36-8.49V21.27c0-6.14,2.8-8.49,8.36-8.49h6.05C173.44,12.78,176.24,15.13,176.24,21.27Zm-5.52,8.93V21c0-2.71-1.06-3.6-3.73-3.6h-4.36c-2.62,0-3.69.89-3.69,3.6v9.2c0,2.76,1.07,3.65,3.69,3.65H167c2.67,0,3.74-.89,3.74-3.65Z"></path><path id="Path_21" data-name="Path 21" class="cls-1" d="M202.87,37.76c0,6.18-2.8,7.65-8.36,7.6a94.8,94.8,0,0,1-11.17-.62.42.42,0,0,1-.38-.44l0-3.13a.44.44,0,0,1,.44-.43h10.24c2.62,0,3.69-.89,3.69-3.65V35c-2,1-4.49,2.22-6.85,2.22h-1.69c-5.42,0-8.18-1.29-8.18-7.38V20.24c0-6.09,2.76-7.34,8.18-7.38h1.47c2.36,0,5.11,1.25,7.07,2.22V13.52a.44.44,0,0,1,.43-.44h4.64a.44.44,0,0,1,.44.44Zm-16.72-8.62c0,2.76,1.07,3.42,3.69,3.42h1.34c1.95,0,4.18-1,6.18-1.55V19.27c-2-.58-4.23-1.56-6.18-1.56h-1.34c-2.62,0-3.69.67-3.69,3.42Z"></path><path id="Path_22" data-name="Path 22" class="cls-1" d="M221.42,38.43H216.6a.44.44,0,0,1-.44-.44V7.75a.44.44,0,0,1,.44-.44h4.82a.44.44,0,0,1,.43.44V38A.44.44,0,0,1,221.42,38.43Z"></path><path id="Path_23" data-name="Path 23" class="cls-1" d="M251.56,12.2h-9.13a.44.44,0,0,0-.44.44h0V38a.44.44,0,0,1-.43.44h-4.82a.44.44,0,0,1-.44-.44V12.64a.44.44,0,0,0-.43-.44H226.7a.44.44,0,0,1-.44-.44h0v-4a.44.44,0,0,1,.43-.44h24.87a.44.44,0,0,1,.44.44v4A.44.44,0,0,1,251.56,12.2Z"></path></g><g id="Group_7" data-name="Group 7"><path id="Path_24" data-name="Path 24" class="cls-1" d="M97.67,48.15h14.6v2.77H100.78v6.67h10.11v2.77H100.78v9.11H97.67Z"></path><path id="Path_25" data-name="Path 25" class="cls-1" d="M129.3,57.59v6.49c0,4.11-1.86,5.54-5.58,5.54h-3.87c-3.65,0-5.51-1.43-5.51-5.54V57.59c0-4.08,1.86-5.51,5.51-5.51h3.87C127.43,52.08,129.3,53.51,129.3,57.59Zm-3,6.46V57.5c0-2.22-.82-2.89-3-2.89h-3c-2.13,0-3,.67-3,2.89v6.55c0,2.25.83,3,3,3h3c2.17,0,3-.7,3-3Z"></path><path id="Path_26" data-name="Path 26" class="cls-1" d="M133.11,52.26h3v1.8c1.34-.79,3.35-2,5.09-2h2.07v2.71h-2.56a11.67,11.67,0,0,0-4.6,1.4V69.47h-3Z"></path><path id="Path_27" data-name="Path 27" class="cls-1" d="M145.72,47.11h3v6.61a12.71,12.71,0,0,1,5.09-1.61h1.13c3.62,0,5.45.82,5.45,4.9v7.7c0,4.05-1.83,4.88-5.45,4.9h-1.13A12.75,12.75,0,0,1,148.7,68v1.49h-3Zm3,18.58a16.44,16.44,0,0,0,4.6,1.25h1.07c2.16,0,3-.48,3-2.71V57.5c0-2.26-.85-2.74-3-2.74H153.3A16.44,16.44,0,0,0,148.7,56Z"></path><path id="Path_28" data-name="Path 28" class="cls-1" d="M178.71,69.47h-3V68a13.93,13.93,0,0,1-5.27,1.61h-1c-3.63,0-5.49-.79-5.49-4.87V52.26h3v12c0,2.25.82,2.74,3,2.74h1a18.49,18.49,0,0,0,4.79-1.25V52.26h3Z"></path><path id="Path_29" data-name="Path 29" class="cls-1" d="M182.88,52.26h3v1.4A13.22,13.22,0,0,1,191,52.07h1c3.6,0,5.42.8,5.42,4.85V69.47h-3v-12c0-2.23-.82-2.74-3-2.74h-1c-1.46,0-3.23.82-4.6,1.28v13.5h-3Z"></path><path id="Path_30" data-name="Path 30" class="cls-1" d="M212.68,47.11h3V69.47h-3V68a12.62,12.62,0,0,1-5.06,1.64h-1.13c-3.59,0-5.42-.85-5.42-4.9V57c0-4.08,1.83-4.87,5.42-4.9h1.13a12.8,12.8,0,0,1,5.06,1.62Zm0,18.58V56a15.6,15.6,0,0,0-4.57-1.25H207c-2.14,0-3,.48-3,2.74v6.73c0,2.23.82,2.71,3,2.71h1.1A15.6,15.6,0,0,0,212.68,65.69Z"></path><path id="Path_31" data-name="Path 31" class="cls-1" d="M233.18,69.29s-3.54.3-8.1.3c-3.66,0-5.52-1-5.52-5.09V57.65c0-3.5,2.23-5.46,5.91-5.46H229c3.69,0,5.55,2,5.55,5.46v4.6c0,.24,0,.33-.3.33h-11.7v1.55c0,2.69.55,3,2.95,3h7.74Zm-1.62-11.06c0-3-.91-3.6-3.16-3.6h-2.32c-2.28,0-3.53.49-3.53,3.6v2l9,0Z"></path><path id="Path_32" data-name="Path 32" class="cls-1" d="M236.56,52.23h2.5V48.15h3v4.11h4.87v2.59h-4.87v10c0,1.55.45,2.13,1.88,2.13l3.2-.06v2.23a33.81,33.81,0,0,1-4.26.45c-3.08,0-3.81-1.8-3.81-4.3V54.85h-2.5Z"></path></g></g><path id="Path_33" data-name="Path 33" class="cls-2" d="M77.58,38.4c-.07-4.25-1.87-7.85-4.75-9.12A84.31,84.31,0,0,0,70.7,16.85c2.53.06,3.16-2,2-4.78a16,16,0,0,0-7.82-7.52c-2.89-1.14-5-.45-4.76,2.19a90.88,90.88,0,0,0-12-1.92C46.88,1.9,43.22.07,38.9,0s-8,1.84-9.13,4.78A92.08,92.08,0,0,0,17.64,6.65c.23-2.65-1.92-3.37-4.85-2.23A15.8,15.8,0,0,0,4.9,11.93c-1.21,2.89-.45,5,2.31,4.8a87.07,87.07,0,0,0-2,12C2.06,29.89.05,33.6,0,38s2,8.12,5.07,9.26A86.73,86.73,0,0,0,7.22,60.18C4.45,60,3.67,62.12,4.9,65a15.84,15.84,0,0,0,7.89,7.51c3,1.16,5.16.38,4.83-2.42a90.79,90.79,0,0,0,12.17,1.87c1.22,2.88,4.85,4.68,9.11,4.7s7.92-1.84,9.15-4.75A90.19,90.19,0,0,0,60.17,70C60,72.55,62.12,73.21,65,72.1a15.82,15.82,0,0,0,7.82-7.59c1.17-2.8.5-4.93-2-4.88a84.51,84.51,0,0,0,2-12.12C75.72,46.25,77.53,42.64,77.58,38.4Zm-9,21.76a16.23,16.23,0,0,0-7.74,7.56A101.72,101.72,0,0,1,48.4,69.57c-.28-2.84-3.12-5.31-7.35-6,.11-4.15.21-8.92.27-14.24a11.46,11.46,0,0,0,9-9c5.22,0,9.92-.11,14-.18.6,4.47,3.16,7.51,6.17,7.75A93.81,93.81,0,0,1,68.53,60.16Zm-59,.66A93.46,93.46,0,0,1,7.47,47.53c2.82-.41,5.22-3.24,5.93-7.35,4.18.07,8.93.14,14.23.18a11.46,11.46,0,0,0,9.51,9c0,5.29.1,10,.16,14.15-4.48.57-7.57,3.1-7.87,6a100.22,100.22,0,0,1-12.54-1.82A16.39,16.39,0,0,0,9.55,60.82ZM17,8.89A99.18,99.18,0,0,1,29.48,7.07c.4,2.81,3.45,5.22,7.82,5.79-.06,4-.12,8.66-.15,13.83a11.45,11.45,0,0,0-9.57,9.5c-5.23.05-9.95.13-14.09.22-.52-4.47-3-7.56-5.92-8a93.64,93.64,0,0,1,2-12.33A16.19,16.19,0,0,0,17,8.89Zm51.45,7.42a92.21,92.21,0,0,1,2,12.57c-2.94.23-5.51,3.16-6.15,7.53-4.1-.08-8.8-.16-14-.21a11.45,11.45,0,0,0-9-9.44c-.06-5.2-.16-9.88-.26-13.93,4.12-.64,6.93-3,7.3-5.71A100.15,100.15,0,0,1,60.75,9a16.37,16.37,0,0,0,7.69,7.33ZM31.69,38A7.28,7.28,0,1,1,39,45.3,7.28,7.28,0,0,1,31.69,38ZM33,5.68c.21-2.23,2.75-3.75,5.86-3.78s5.64,1.61,5.89,3.81S42.43,9.85,38.93,9.9s-6-2-5.89-4.22Zm0,65.16c-.13-2.3,2.42-4.24,5.93-4.29s6,2,5.88,4.26-2.77,3.83-5.92,3.88S33.24,73.1,33,70.84ZM63.25,68a9.68,9.68,0,0,1,5.45-5.35c2.23-.62,3,.68,2.22,2.74a9.64,9.64,0,0,1-5,4.84c-2.08.78-3.36,0-2.69-2.23Zm4.08-29.64c0-3.52,2-6.07,4.3-5.92s3.9,2.78,4,5.93S74,44.1,71.64,44.32s-4.26-2.43-4.31-5.93ZM63.14,8.53c-.66-2.16.6-2.94,2.66-2.17a9.79,9.79,0,0,1,5,4.8c.83,2,0,3.3-2.19,2.67a9.84,9.84,0,0,1-5.45-5.3ZM6.82,11a9.75,9.75,0,0,1,5-4.8c2.11-.76,3.39,0,2.73,2.19a9.59,9.59,0,0,1-5.5,5.3C6.83,14.35,6,13.06,6.82,11ZM2,38c.07-3.18,1.69-5.74,4-6s4.33,2.38,4.35,5.93-2.06,6.12-4.4,6S2,41.16,2,38ZM6.82,65.88c-.82-2.06,0-3.31,2.26-2.69a9.49,9.49,0,0,1,5.49,5.3c.66,2.13-.63,2.93-2.73,2.19a10,10,0,0,1-5-4.8Z"></path></g></g></g></svg>