<svg class="relative max-h-12 lg:max-h-16 w-auto" width="118.3" height="64" xmlns="http://www.w3.org/2000/svg" viewBox="0 0 118.3 64" fill="#fff"><path d="M21,38.7c3.89,0,6.47-2.29,6.47-5.38s-2-4.53-5.68-5.26c-2.2-.42-4.41-1.15-4.41-2.95,0-1.17,1.08-2.17,3-2.17s3.68.91,3.68,2.32a2.7,2.7,0,0,1-.18.88l2.64.92a3.93,3.93,0,0,0,.5-1.92c0-2.91-2.67-4.91-6.37-4.91s-6.09,2.29-6.09,4.87c0,3.3,2.44,4.86,6.23,5.48,2.83.51,3.71,1.47,3.71,2.82S23.17,36,21,36c-2,0-3.89-.88-3.89-2.67a3.93,3.93,0,0,1,.15-1l-2.64-1.09a4.41,4.41,0,0,0-.51,2c0,3.32,2.62,5.49,6.85,5.49"></path><path d="M29.52,22.77a1.66,1.66,0,0,0,1.63,1.7h.07A1.68,1.68,0,0,0,33,22.82v-.05a1.72,1.72,0,0,0-3.44,0"></path><rect x="29.9" y="26.29" width="2.68" height="12.15"></rect><path d="M40.91,36.12a3.42,3.42,0,0,1-3.5-3.7c0-2.56,1.54-4.09,3.5-4.09a3.62,3.62,0,0,1,3.5,3.91,3.62,3.62,0,0,1-3.5,3.88m3.37-9.85v1.64A4.19,4.19,0,0,0,40.44,26c-3.21,0-5.77,2.53-5.77,6.38s2.44,6,5.49,6a4.24,4.24,0,0,0,4.09-2.17v1.29c0,2.29-.88,3.91-3.21,3.91A3.14,3.14,0,0,1,37.72,39l-2.44,1c.88,2.68,2.94,3.79,5.76,3.79,3.85,0,5.89-2.64,5.89-6.35V26.25H44.28Z"></path><path d="M52.4,31.65c0-2.14,1.3-3.33,2.88-3.33s2.49,1.08,2.49,3.09v7h2.68v-8c0-2.86-1.8-4.47-4.27-4.47a4.29,4.29,0,0,0-3.83,2V26.28H49.68V38.42h2.67V31.63Z"></path><path d="M70.55,32.27a3.66,3.66,0,0,1,3.59-3.94,3.2,3.2,0,0,1,3.33,2.91l2.44-.75C79.4,27.67,77.09,26,74.14,26A6.07,6.07,0,0,0,68,32.28c0,3.85,2.56,6.41,6.52,6.41a5.83,5.83,0,0,0,6-4.87l-2.44-.88c-.27,1.79-1.3,3.46-3.7,3.46a4,4,0,0,1-3.86-4.13"></path><path d="M88.05,36.29a3.66,3.66,0,0,1-3.62-3.88,3.74,3.74,0,0,1,3.62-4,3.78,3.78,0,0,1,3.64,4,3.73,3.73,0,0,1-3.64,3.88m3.53-10v2A4.33,4.33,0,0,0,87.49,26c-3.37,0-5.73,2.67-5.73,6.41s2.41,6.26,5.73,6.26a4.73,4.73,0,0,0,4.24-2.29v2h2.56V26.25Z"></path><path d="M102.75,38.68a3.9,3.9,0,0,0,4.09-3.85l-2.56-.5c-.09,1.41-.66,2.05-1.68,2.05a1.52,1.52,0,0,1-1.54-1.68V28.58h4.62V26.25h-4.62V22.37H98.4v3.88H96v2.3H98.4v6c0,2.44,1.38,4.12,4.35,4.12"></path><path d="M62.83,22.77a1.66,1.66,0,0,0,1.63,1.7h.07a1.68,1.68,0,0,0,1.74-1.65v-.05A1.72,1.72,0,0,0,64.58,21h0a1.69,1.69,0,0,0-1.7,1.68v.06"></path><rect x="63.21" y="26.29" width="2.68" height="12.15"></rect></svg>
